<?xml version="1.0" encoding="UTF-8"?>
<svg id="Layer_1" data-name="Layer 1" xmlns="http://www.w3.org/2000/svg" viewBox="0 0 750 750">
  <defs>
    <style>
      .cls-1 {
        fill: #000;
      }

      .cls-1, .cls-2, .cls-3, .cls-4, .cls-5 {
        stroke-width: 0px;
      }

      .cls-2 {
        fill: #402911;
      }

      .cls-3 {
        fill: #d6b588;
      }

      .cls-4 {
        fill: #726048;
      }

      .cls-5 {
        fill: #fff;
      }
    </style>
  </defs>
  <rect class="cls-5" x="0" width="750" height="750"/>
  <g>
    <path class="cls-4" d="M667.05,375c16.32,28.34,25.66,61.22,25.66,96.27,0,106.69-86.48,193.17-193.17,193.17s-193.17-86.48-193.17-193.17c0-35.05,9.34-67.93,25.66-96.27-16.32-28.34-25.66-61.22-25.66-96.28,0-106.68,86.49-193.17,193.17-193.17s193.17,86.49,193.17,193.17c0,35.06-9.34,67.94-25.66,96.28Z"/>
    <g>
      <polygon class="cls-3" points="307.18 225.82 94.08 594.91 520.28 594.91 307.18 225.82"/>
      <path class="cls-1" d="M491.11,538.49H71.05c-4.91,0-9.48-2.64-11.93-6.89-2.45-4.25-2.45-9.52,0-13.77l210.03-363.78c2.45-4.25,7.02-6.89,11.93-6.89s9.48,2.64,11.93,6.89l210.03,363.78c2.45,4.25,2.45,9.52,0,13.77-2.45,4.25-7.02,6.89-11.93,6.89ZM88.77,514.49h384.63l-192.31-333.1-192.31,333.1ZM289.94,166.05l-.02.03s.01-.02.02-.03Z"/>
    </g>
    <path class="cls-2" d="M692.67,278.42c0,51.22-20.37,100.38-56.58,136.59-36.19,36.2-85.33,56.56-136.51,56.58h-193.17c0-51.21,20.37-100.38,56.58-136.59,36.19-36.19,85.33-56.56,136.51-56.58h193.17Z"/>
  </g>
</svg>