<?xml version="1.0" encoding="UTF-8"?>
<svg id="Layer_1" data-name="Layer 1" xmlns="http://www.w3.org/2000/svg" xmlns:xlink="http://www.w3.org/1999/xlink" viewBox="0 0 530 530">
  <defs>
    <style>
      .cls-1 {
        fill: none;
      }

      .cls-1, .cls-2, .cls-3 {
        stroke-width: 0px;
      }

      .cls-4 {
        clip-path: url(#clippath);
      }

      .cls-5 {
        fill: #231f20;
        stroke: #231f20;
        stroke-miterlimit: 10;
        stroke-width: 3px;
      }

      .cls-2 {
        fill: #ffc857;
      }

      .cls-3 {
        fill: #fff;
      }
    </style>
    <clipPath id="clippath">
      <path class="cls-1" d="M452.15,191.61c0,68.22-94.67,187.14-138.89,238.97-11.68,13.69-32.84,13.69-44.52,0-44.22-51.83-138.89-170.75-138.89-238.97,0-89,72.15-161.15,161.15-161.15s161.15,72.15,161.15,161.15"/>
    </clipPath>
  </defs>
  <rect class="cls-3" width="530" height="530"/>
  <g class="cls-4">
    <g>
      <rect class="cls-1" x="208.42" y="-24.88" width="443.49" height="69.95"/>
      <g>
        <rect class="cls-2" x="208.42" y="31.07" width="443.49" height="4"/>
        <rect class="cls-1" x="208.42" y="35.06" width="443.49" height="10"/>
      </g>
      <g>
        <rect class="cls-2" x="208.42" y="17.09" width="443.49" height="4"/>
        <rect class="cls-1" x="208.42" y="21.07" width="443.49" height="10"/>
      </g>
      <g>
        <rect class="cls-2" x="208.42" y="3.1" width="443.49" height="4"/>
        <rect class="cls-1" x="208.42" y="7.09" width="443.49" height="10"/>
      </g>
      <rect class="cls-1" x="208.42" y="-6.9" width="443.49" height="10"/>
    </g>
    <g>
      <rect class="cls-1" x="208.42" y="45.06" width="443.49" height="69.95"/>
      <g>
        <rect class="cls-2" x="208.42" y="101.02" width="443.49" height="4"/>
        <rect class="cls-1" x="208.42" y="105.01" width="443.49" height="10"/>
      </g>
      <g>
        <rect class="cls-2" x="208.42" y="87.03" width="443.49" height="4"/>
        <rect class="cls-1" x="208.42" y="91.02" width="443.49" height="10"/>
      </g>
      <g>
        <rect class="cls-2" x="208.42" y="73.04" width="443.49" height="4"/>
        <rect class="cls-1" x="208.42" y="77.03" width="443.49" height="10"/>
      </g>
      <g>
        <rect class="cls-2" x="208.42" y="59.05" width="443.49" height="4"/>
        <rect class="cls-1" x="208.42" y="63.04" width="443.49" height="10"/>
      </g>
      <g>
        <rect class="cls-2" x="208.42" y="45.06" width="443.49" height="4"/>
        <rect class="cls-1" x="208.42" y="49.05" width="443.49" height="10"/>
      </g>
    </g>
    <g>
      <rect class="cls-1" x="208.42" y="115.01" width="443.49" height="69.95"/>
      <g>
        <rect class="cls-2" x="208.42" y="170.97" width="443.49" height="4"/>
        <rect class="cls-1" x="208.42" y="174.96" width="443.49" height="10"/>
      </g>
      <g>
        <rect class="cls-2" x="208.42" y="156.98" width="443.49" height="4"/>
        <rect class="cls-1" x="208.42" y="160.97" width="443.49" height="10"/>
      </g>
      <g>
        <rect class="cls-2" x="208.42" y="142.99" width="443.49" height="4"/>
        <rect class="cls-1" x="208.42" y="146.98" width="443.49" height="10"/>
      </g>
      <g>
        <rect class="cls-2" x="208.42" y="129" width="443.49" height="4"/>
        <rect class="cls-1" x="208.42" y="132.99" width="443.49" height="10"/>
      </g>
      <g>
        <rect class="cls-2" x="208.42" y="115.01" width="443.49" height="4"/>
        <rect class="cls-1" x="208.42" y="119" width="443.49" height="10"/>
      </g>
    </g>
    <g>
      <rect class="cls-1" x="208.42" y="184.96" width="443.49" height="69.95"/>
      <g>
        <rect class="cls-2" x="208.42" y="240.92" width="443.49" height="4"/>
        <rect class="cls-1" x="208.42" y="244.9" width="443.49" height="10"/>
      </g>
      <g>
        <rect class="cls-2" x="208.42" y="226.93" width="443.49" height="4"/>
        <rect class="cls-1" x="208.42" y="230.92" width="443.49" height="10"/>
      </g>
      <g>
        <rect class="cls-2" x="208.42" y="212.94" width="443.49" height="4"/>
        <rect class="cls-1" x="208.42" y="216.93" width="443.49" height="10"/>
      </g>
      <g>
        <rect class="cls-2" x="208.42" y="198.95" width="443.49" height="4"/>
        <rect class="cls-1" x="208.42" y="202.94" width="443.49" height="10"/>
      </g>
      <g>
        <rect class="cls-2" x="208.42" y="184.96" width="443.49" height="4"/>
        <rect class="cls-1" x="208.42" y="188.95" width="443.49" height="10"/>
      </g>
    </g>
    <g>
      <rect class="cls-1" x="208.42" y="254.9" width="443.49" height="69.95"/>
      <g>
        <rect class="cls-2" x="208.42" y="310.86" width="443.49" height="4"/>
        <rect class="cls-1" x="208.42" y="314.85" width="443.49" height="10"/>
      </g>
      <g>
        <rect class="cls-2" x="208.42" y="296.87" width="443.49" height="4"/>
        <rect class="cls-1" x="208.42" y="300.86" width="443.49" height="10"/>
      </g>
      <g>
        <rect class="cls-2" x="208.42" y="282.88" width="443.49" height="4"/>
        <rect class="cls-1" x="208.42" y="286.87" width="443.49" height="10"/>
      </g>
      <g>
        <rect class="cls-2" x="208.42" y="268.89" width="443.49" height="4"/>
        <rect class="cls-1" x="208.42" y="272.88" width="443.49" height="10"/>
      </g>
      <g>
        <rect class="cls-2" x="208.42" y="254.9" width="443.49" height="4"/>
        <rect class="cls-1" x="208.42" y="258.89" width="443.49" height="10"/>
      </g>
    </g>
    <g>
      <rect class="cls-1" x="208.42" y="324.85" width="443.49" height="69.95"/>
      <g>
        <rect class="cls-2" x="208.42" y="380.81" width="443.49" height="4"/>
        <rect class="cls-1" x="208.42" y="384.8" width="443.49" height="10"/>
      </g>
      <g>
        <rect class="cls-2" x="208.42" y="366.82" width="443.49" height="4"/>
        <rect class="cls-1" x="208.42" y="370.81" width="443.49" height="10"/>
      </g>
      <g>
        <rect class="cls-2" x="208.42" y="352.83" width="443.49" height="4"/>
        <rect class="cls-1" x="208.42" y="356.82" width="443.49" height="10"/>
      </g>
      <g>
        <rect class="cls-2" x="208.42" y="338.84" width="443.49" height="4"/>
        <rect class="cls-1" x="208.42" y="342.83" width="443.49" height="10"/>
      </g>
      <g>
        <rect class="cls-2" x="208.42" y="324.85" width="443.49" height="4"/>
        <rect class="cls-1" x="208.42" y="328.84" width="443.49" height="10"/>
      </g>
    </g>
    <g>
      <rect class="cls-1" x="208.42" y="394.8" width="443.49" height="69.95"/>
      <g>
        <rect class="cls-2" x="208.42" y="450.76" width="443.49" height="4"/>
        <rect class="cls-1" x="208.42" y="454.75" width="443.49" height="10"/>
      </g>
      <g>
        <rect class="cls-2" x="208.42" y="436.77" width="443.49" height="4"/>
        <rect class="cls-1" x="208.42" y="440.76" width="443.49" height="10"/>
      </g>
      <g>
        <rect class="cls-2" x="208.42" y="422.78" width="443.49" height="4"/>
        <rect class="cls-1" x="208.42" y="426.77" width="443.49" height="10"/>
      </g>
      <g>
        <rect class="cls-2" x="208.42" y="408.79" width="443.49" height="4"/>
        <rect class="cls-1" x="208.42" y="412.78" width="443.49" height="10"/>
      </g>
      <g>
        <rect class="cls-2" x="208.42" y="394.8" width="443.49" height="4"/>
        <rect class="cls-1" x="208.42" y="398.79" width="443.49" height="10"/>
      </g>
    </g>
    <g>
      <rect class="cls-1" x="-235.07" y="-24.88" width="443.49" height="69.95"/>
      <g>
        <rect class="cls-2" x="-235.07" y="31.07" width="443.49" height="4"/>
        <rect class="cls-1" x="-235.07" y="35.06" width="443.49" height="10"/>
      </g>
      <g>
        <rect class="cls-2" x="-235.07" y="17.09" width="443.49" height="4"/>
        <rect class="cls-1" x="-235.07" y="21.07" width="443.49" height="10"/>
      </g>
      <g>
        <rect class="cls-2" x="-235.07" y="3.1" width="443.49" height="4"/>
        <rect class="cls-1" x="-235.07" y="7.09" width="443.49" height="10"/>
      </g>
      <rect class="cls-1" x="-235.07" y="-6.9" width="443.49" height="10"/>
    </g>
    <g>
      <rect class="cls-1" x="-235.07" y="45.06" width="443.49" height="69.95"/>
      <g>
        <rect class="cls-2" x="-235.07" y="101.02" width="443.49" height="4"/>
        <rect class="cls-1" x="-235.07" y="105.01" width="443.49" height="10"/>
      </g>
      <g>
        <rect class="cls-2" x="-235.07" y="87.03" width="443.49" height="4"/>
        <rect class="cls-1" x="-235.07" y="91.02" width="443.49" height="10"/>
      </g>
      <g>
        <rect class="cls-2" x="-235.07" y="73.04" width="443.49" height="4"/>
        <rect class="cls-1" x="-235.07" y="77.03" width="443.49" height="10"/>
      </g>
      <g>
        <rect class="cls-2" x="-235.07" y="59.05" width="443.49" height="4"/>
        <rect class="cls-1" x="-235.07" y="63.04" width="443.49" height="10"/>
      </g>
      <g>
        <rect class="cls-2" x="-235.07" y="45.06" width="443.49" height="4"/>
        <rect class="cls-1" x="-235.07" y="49.05" width="443.49" height="10"/>
      </g>
    </g>
    <g>
      <rect class="cls-1" x="-235.07" y="115.01" width="443.49" height="69.95"/>
      <g>
        <rect class="cls-2" x="-235.07" y="170.97" width="443.49" height="4"/>
        <rect class="cls-1" x="-235.07" y="174.96" width="443.49" height="10"/>
      </g>
      <g>
        <rect class="cls-2" x="-235.07" y="156.98" width="443.49" height="4"/>
        <rect class="cls-1" x="-235.07" y="160.97" width="443.49" height="10"/>
      </g>
      <g>
        <rect class="cls-2" x="-235.07" y="142.99" width="443.49" height="4"/>
        <rect class="cls-1" x="-235.07" y="146.98" width="443.49" height="10"/>
      </g>
      <g>
        <rect class="cls-2" x="-235.07" y="129" width="443.49" height="4"/>
        <rect class="cls-1" x="-235.07" y="132.99" width="443.49" height="10"/>
      </g>
      <g>
        <rect class="cls-2" x="-235.07" y="115.01" width="443.49" height="4"/>
        <rect class="cls-1" x="-235.07" y="119" width="443.49" height="10"/>
      </g>
    </g>
    <g>
      <rect class="cls-1" x="-235.07" y="184.96" width="443.49" height="69.95"/>
      <g>
        <rect class="cls-2" x="-235.07" y="240.92" width="443.49" height="4"/>
        <rect class="cls-1" x="-235.07" y="244.9" width="443.49" height="10"/>
      </g>
      <g>
        <rect class="cls-2" x="-235.07" y="226.93" width="443.49" height="4"/>
        <rect class="cls-1" x="-235.07" y="230.92" width="443.49" height="10"/>
      </g>
      <g>
        <rect class="cls-2" x="-235.07" y="212.94" width="443.49" height="4"/>
        <rect class="cls-1" x="-235.07" y="216.93" width="443.49" height="10"/>
      </g>
      <g>
        <rect class="cls-2" x="-235.07" y="198.95" width="443.49" height="4"/>
        <rect class="cls-1" x="-235.07" y="202.94" width="443.49" height="10"/>
      </g>
      <g>
        <rect class="cls-2" x="-235.07" y="184.96" width="443.49" height="4"/>
        <rect class="cls-1" x="-235.07" y="188.95" width="443.49" height="10"/>
      </g>
    </g>
    <g>
      <rect class="cls-1" x="-235.07" y="254.9" width="443.49" height="69.95"/>
      <g>
        <rect class="cls-2" x="-235.07" y="310.86" width="443.49" height="4"/>
        <rect class="cls-1" x="-235.07" y="314.85" width="443.49" height="10"/>
      </g>
      <g>
        <rect class="cls-2" x="-235.07" y="296.87" width="443.49" height="4"/>
        <rect class="cls-1" x="-235.07" y="300.86" width="443.49" height="10"/>
      </g>
      <g>
        <rect class="cls-2" x="-235.07" y="282.88" width="443.49" height="4"/>
        <rect class="cls-1" x="-235.07" y="286.87" width="443.49" height="10"/>
      </g>
      <g>
        <rect class="cls-2" x="-235.07" y="268.89" width="443.49" height="4"/>
        <rect class="cls-1" x="-235.07" y="272.88" width="443.49" height="10"/>
      </g>
      <g>
        <rect class="cls-2" x="-235.07" y="254.9" width="443.49" height="4"/>
        <rect class="cls-1" x="-235.07" y="258.89" width="443.49" height="10"/>
      </g>
    </g>
    <g>
      <rect class="cls-1" x="-235.07" y="324.85" width="443.49" height="69.95"/>
      <g>
        <rect class="cls-2" x="-235.07" y="380.81" width="443.49" height="4"/>
        <rect class="cls-1" x="-235.07" y="384.8" width="443.49" height="10"/>
      </g>
      <g>
        <rect class="cls-2" x="-235.07" y="366.82" width="443.49" height="4"/>
        <rect class="cls-1" x="-235.07" y="370.81" width="443.49" height="10"/>
      </g>
      <g>
        <rect class="cls-2" x="-235.07" y="352.83" width="443.49" height="4"/>
        <rect class="cls-1" x="-235.07" y="356.82" width="443.49" height="10"/>
      </g>
      <g>
        <rect class="cls-2" x="-235.07" y="338.84" width="443.49" height="4"/>
        <rect class="cls-1" x="-235.07" y="342.83" width="443.49" height="10"/>
      </g>
      <g>
        <rect class="cls-2" x="-235.07" y="324.85" width="443.49" height="4"/>
        <rect class="cls-1" x="-235.07" y="328.84" width="443.49" height="10"/>
      </g>
    </g>
    <g>
      <rect class="cls-1" x="-235.07" y="394.8" width="443.49" height="69.95"/>
      <g>
        <rect class="cls-2" x="-235.07" y="450.76" width="443.49" height="4"/>
        <rect class="cls-1" x="-235.07" y="454.75" width="443.49" height="10"/>
      </g>
      <g>
        <rect class="cls-2" x="-235.07" y="436.77" width="443.49" height="4"/>
        <rect class="cls-1" x="-235.07" y="440.76" width="443.49" height="10"/>
      </g>
      <g>
        <rect class="cls-2" x="-235.07" y="422.78" width="443.49" height="4"/>
        <rect class="cls-1" x="-235.07" y="426.77" width="443.49" height="10"/>
      </g>
      <g>
        <rect class="cls-2" x="-235.07" y="408.79" width="443.49" height="4"/>
        <rect class="cls-1" x="-235.07" y="412.78" width="443.49" height="10"/>
      </g>
      <g>
        <rect class="cls-2" x="-235.07" y="394.8" width="443.49" height="4"/>
        <rect class="cls-1" x="-235.07" y="398.79" width="443.49" height="10"/>
      </g>
    </g>
  </g>
  <path class="cls-5" d="M241,442.84c-9.17,0-17.84-4-23.78-10.97-23.44-27.48-57.42-69.48-86.18-113.54-35.29-54.08-53.19-96.72-53.19-126.72,0-89.96,73.19-163.15,163.15-163.15s163.15,73.19,163.15,163.15c0,30.01-17.89,72.64-53.19,126.72-28.76,44.07-62.74,86.07-86.18,113.54-5.95,6.97-14.61,10.97-23.78,10.97ZM241,32.46c-87.75,0-159.15,71.39-159.15,159.15,0,68.09,96.79,188.89,138.41,237.67,5.19,6.08,12.74,9.56,20.74,9.56,8,0,15.55-3.49,20.74-9.56,41.62-48.78,138.41-169.58,138.41-237.67,0-87.75-71.39-159.15-159.15-159.15Z"/>
  <path class="cls-5" d="M250.93,501.54c-.46,0-.93-.16-1.3-.48-.84-.72-.93-1.98-.21-2.82l79.15-91.98c.61-.7.25-1.27-.03-1.56-.27-.28-.84-.67-1.54-.09l-41.04,33.71c-2.12,1.74-5.05,1.58-6.95-.4-1.91-1.97-1.98-4.9-.17-6.96l74.93-91.21c.7-.85,1.96-.98,2.82-.28.85.7.98,1.96.28,2.82l-74.97,91.26c-.64.74-.28,1.31,0,1.59s.83.67,1.54.09l41.04-33.71c2.12-1.74,5.05-1.57,6.95.4,1.91,1.97,1.98,4.9.17,6.96l-79.14,91.96c-.4.46-.95.7-1.52.7Z"/>
  <path class="cls-5" d="M241,203.03l-1.34-1.21c-1.57-1.42-15.31-14.09-15.31-22.81.45-11.41,8.95-16.57,16.65-16.57h0c7.7,0,16.2,5.16,16.65,16.49v.08c0,8.73-13.74,21.4-15.31,22.81l-1.34,1.21ZM241,166.43c-6.05,0-12.3,3.91-12.65,12.65,0,5.24,8.18,14.2,12.65,18.51,4.46-4.3,12.61-13.24,12.65-18.55-.36-8.71-6.61-12.61-12.65-12.61Z"/>
  <g>
    <path class="cls-5" d="M266.66,236.19c-1.71,0-2.94-.05-3.38-.08l-1.81-.09-.09-1.81c-.1-1.9-.78-18.69,4.81-24.28,7.61-7.04,16.37-4.89,21.32.05,4.94,4.94,7.08,13.7.1,21.26l-.05.06c-4.29,4.29-15.22,4.89-20.9,4.89ZM265.32,232.18c6.6.12,16.38-.72,19.39-3.68,5.18-5.64,3.73-11.94-.02-15.69-3.75-3.76-10.07-5.21-15.72,0-2.93,2.93-3.77,12.74-3.65,19.36Z"/>
    <path class="cls-5" d="M254.97,438.39l-3.99-.2,10.29-201.89c-4.16.09-7.86-1.21-11.01-3.9-10.69-9.1-11.24-31.1-11.26-32.03l4-.08c0,.21.53,21.14,9.85,29.06,2.87,2.44,6.22,3.35,10.25,2.78l2.4-.34-10.53,206.6Z"/>
  </g>
  <g>
    <path class="cls-5" d="M215.34,236.19c-5.68,0-16.6-.59-20.9-4.89l-.06-.06c-6.98-7.55-4.84-16.32.1-21.26s13.7-7.08,21.26-.1c5.64,5.64,4.96,22.44,4.87,24.33l-.09,1.81-1.81.09c-.44.02-1.67.08-3.38.08ZM197.29,228.5c3.01,2.96,12.78,3.8,19.39,3.68.12-6.62-.73-16.44-3.71-19.41-5.59-5.16-11.91-3.71-15.66.05-3.75,3.75-5.2,10.05-.02,15.69Z"/>
    <path class="cls-5" d="M227.03,438.39l-10.53-206.6,2.4.34c4.02.57,7.37-.34,10.25-2.78,9.32-7.93,9.85-28.85,9.85-29.06l4,.08c-.02.93-.56,22.93-11.26,32.03-3.15,2.68-6.84,3.99-11.01,3.89l10.29,201.89-3.99.2Z"/>
  </g>
</svg>