<?xml version="1.0" encoding="UTF-8"?>
<svg id="Layer_1" data-name="Layer 1" xmlns="http://www.w3.org/2000/svg" xmlns:xlink="http://www.w3.org/1999/xlink" viewBox="0 0 388.18 574.29">
  <defs>
    <style>
      .cls-1 {
        fill: #231f20;
      }

      .cls-1, .cls-2, .cls-3 {
        stroke-width: 0px;
      }

      .cls-2 {
        fill: none;
      }

      .cls-4 {
        clip-path: url(#clippath);
      }

      .cls-3 {
        fill: #a7bdd8;
      }
    </style>
    <clipPath id="clippath">
      <path class="cls-2" d="M383.86,169.65c0,68.22-94.67,187.14-138.89,238.97-11.68,13.69-32.84,13.69-44.52,0-44.22-51.83-138.89-170.75-138.89-238.97C61.56,80.65,133.71,8.5,222.71,8.5s161.15,72.15,161.15,161.15"/>
    </clipPath>
  </defs>
  <g class="cls-4">
    <g>
      <rect class="cls-2" x="140.13" y="-16.59" width="443.49" height="69.95"/>
      <g>
        <rect class="cls-3" x="140.13" y="39.37" width="443.49" height="4"/>
        <rect class="cls-2" x="140.13" y="43.36" width="443.49" height="10"/>
      </g>
      <g>
        <rect class="cls-3" x="140.13" y="25.38" width="443.49" height="4"/>
        <rect class="cls-2" x="140.13" y="29.37" width="443.49" height="10"/>
      </g>
      <g>
        <rect class="cls-3" x="140.13" y="11.39" width="443.49" height="4"/>
        <rect class="cls-2" x="140.13" y="15.38" width="443.49" height="10"/>
      </g>
      <g>
        <rect class="cls-3" x="140.13" y="-2.6" width="443.49" height="4"/>
        <rect class="cls-2" x="140.13" y="1.39" width="443.49" height="10"/>
      </g>
    </g>
    <g>
      <rect class="cls-2" x="140.13" y="53.36" width="443.49" height="69.95"/>
      <g>
        <rect class="cls-3" x="140.13" y="109.32" width="443.49" height="4"/>
        <rect class="cls-2" x="140.13" y="113.31" width="443.49" height="10"/>
      </g>
      <g>
        <rect class="cls-3" x="140.13" y="95.33" width="443.49" height="4"/>
        <rect class="cls-2" x="140.13" y="99.32" width="443.49" height="10"/>
      </g>
      <g>
        <rect class="cls-3" x="140.13" y="81.34" width="443.49" height="4"/>
        <rect class="cls-2" x="140.13" y="85.33" width="443.49" height="10"/>
      </g>
      <g>
        <rect class="cls-3" x="140.13" y="67.35" width="443.49" height="4"/>
        <rect class="cls-2" x="140.13" y="71.34" width="443.49" height="10"/>
      </g>
      <g>
        <rect class="cls-3" x="140.13" y="53.36" width="443.49" height="4"/>
        <rect class="cls-2" x="140.13" y="57.35" width="443.49" height="10"/>
      </g>
    </g>
    <g>
      <rect class="cls-2" x="140.13" y="123.31" width="443.49" height="69.95"/>
      <g>
        <rect class="cls-3" x="140.13" y="179.26" width="443.49" height="4"/>
        <rect class="cls-2" x="140.13" y="183.25" width="443.49" height="10"/>
      </g>
      <g>
        <rect class="cls-3" x="140.13" y="165.27" width="443.49" height="4"/>
        <rect class="cls-2" x="140.13" y="169.26" width="443.49" height="10"/>
      </g>
      <g>
        <rect class="cls-3" x="140.13" y="151.29" width="443.49" height="4"/>
        <rect class="cls-2" x="140.13" y="155.27" width="443.49" height="10"/>
      </g>
      <g>
        <rect class="cls-3" x="140.13" y="137.3" width="443.49" height="4"/>
        <rect class="cls-2" x="140.13" y="141.29" width="443.49" height="10"/>
      </g>
      <g>
        <rect class="cls-3" x="140.13" y="123.31" width="443.49" height="4"/>
        <rect class="cls-2" x="140.13" y="127.3" width="443.49" height="10"/>
      </g>
    </g>
    <g>
      <rect class="cls-2" x="140.13" y="193.25" width="443.49" height="69.95"/>
      <g>
        <rect class="cls-3" x="140.13" y="249.21" width="443.49" height="4"/>
        <rect class="cls-2" x="140.13" y="253.2" width="443.49" height="10"/>
      </g>
      <g>
        <rect class="cls-3" x="140.13" y="235.22" width="443.49" height="4"/>
        <rect class="cls-2" x="140.13" y="239.21" width="443.49" height="10"/>
      </g>
      <g>
        <rect class="cls-3" x="140.13" y="221.23" width="443.49" height="4"/>
        <rect class="cls-2" x="140.13" y="225.22" width="443.49" height="10"/>
      </g>
      <g>
        <rect class="cls-3" x="140.13" y="207.24" width="443.49" height="4"/>
        <rect class="cls-2" x="140.13" y="211.23" width="443.49" height="10"/>
      </g>
      <g>
        <rect class="cls-3" x="140.13" y="193.25" width="443.49" height="4"/>
        <rect class="cls-2" x="140.13" y="197.24" width="443.49" height="10"/>
      </g>
    </g>
    <g>
      <rect class="cls-2" x="140.13" y="263.2" width="443.49" height="69.95"/>
      <g>
        <rect class="cls-3" x="140.13" y="319.16" width="443.49" height="4"/>
        <rect class="cls-2" x="140.13" y="323.15" width="443.49" height="10"/>
      </g>
      <g>
        <rect class="cls-3" x="140.13" y="305.17" width="443.49" height="4"/>
        <rect class="cls-2" x="140.13" y="309.16" width="443.49" height="10"/>
      </g>
      <g>
        <rect class="cls-3" x="140.13" y="291.18" width="443.49" height="4"/>
        <rect class="cls-2" x="140.13" y="295.17" width="443.49" height="10"/>
      </g>
      <g>
        <rect class="cls-3" x="140.13" y="277.19" width="443.49" height="4"/>
        <rect class="cls-2" x="140.13" y="281.18" width="443.49" height="10"/>
      </g>
      <g>
        <rect class="cls-3" x="140.13" y="263.2" width="443.49" height="4"/>
        <rect class="cls-2" x="140.13" y="267.19" width="443.49" height="10"/>
      </g>
    </g>
    <g>
      <rect class="cls-2" x="140.13" y="333.15" width="443.49" height="69.95"/>
      <g>
        <rect class="cls-3" x="140.13" y="389.1" width="443.49" height="4"/>
        <rect class="cls-2" x="140.13" y="393.09" width="443.49" height="10"/>
      </g>
      <g>
        <rect class="cls-3" x="140.13" y="375.12" width="443.49" height="4"/>
        <rect class="cls-2" x="140.13" y="379.1" width="443.49" height="10"/>
      </g>
      <g>
        <rect class="cls-3" x="140.13" y="361.13" width="443.49" height="4"/>
        <rect class="cls-2" x="140.13" y="365.12" width="443.49" height="10"/>
      </g>
      <g>
        <rect class="cls-3" x="140.13" y="347.14" width="443.49" height="4"/>
        <rect class="cls-2" x="140.13" y="351.13" width="443.49" height="10"/>
      </g>
      <g>
        <rect class="cls-3" x="140.13" y="333.15" width="443.49" height="4"/>
        <rect class="cls-2" x="140.13" y="337.14" width="443.49" height="10"/>
      </g>
    </g>
    <g>
      <rect class="cls-2" x="140.13" y="403.09" width="443.49" height="69.95"/>
      <g>
        <rect class="cls-3" x="140.13" y="459.05" width="443.49" height="4"/>
        <rect class="cls-2" x="140.13" y="463.04" width="443.49" height="10"/>
      </g>
      <g>
        <rect class="cls-3" x="140.13" y="445.06" width="443.49" height="4"/>
        <rect class="cls-2" x="140.13" y="449.05" width="443.49" height="10"/>
      </g>
      <g>
        <rect class="cls-3" x="140.13" y="431.07" width="443.49" height="4"/>
        <rect class="cls-2" x="140.13" y="435.06" width="443.49" height="10"/>
      </g>
      <g>
        <rect class="cls-3" x="140.13" y="417.08" width="443.49" height="4"/>
        <rect class="cls-2" x="140.13" y="421.07" width="443.49" height="10"/>
      </g>
      <g>
        <rect class="cls-3" x="140.13" y="403.09" width="443.49" height="4"/>
        <rect class="cls-2" x="140.13" y="407.08" width="443.49" height="10"/>
      </g>
    </g>
    <g>
      <rect class="cls-2" x="-303.36" y="-16.59" width="443.49" height="69.95"/>
      <g>
        <rect class="cls-3" x="-303.36" y="39.37" width="443.49" height="4"/>
        <rect class="cls-2" x="-303.36" y="43.36" width="443.49" height="10"/>
      </g>
      <g>
        <rect class="cls-3" x="-303.36" y="25.38" width="443.49" height="4"/>
        <rect class="cls-2" x="-303.36" y="29.37" width="443.49" height="10"/>
      </g>
      <g>
        <rect class="cls-3" x="-303.36" y="11.39" width="443.49" height="4"/>
        <rect class="cls-2" x="-303.36" y="15.38" width="443.49" height="10"/>
      </g>
      <g>
        <rect class="cls-3" x="-303.36" y="-2.6" width="443.49" height="4"/>
        <rect class="cls-2" x="-303.36" y="1.39" width="443.49" height="10"/>
      </g>
    </g>
    <g>
      <rect class="cls-2" x="-303.36" y="53.36" width="443.49" height="69.95"/>
      <g>
        <rect class="cls-3" x="-303.36" y="109.32" width="443.49" height="4"/>
        <rect class="cls-2" x="-303.36" y="113.31" width="443.49" height="10"/>
      </g>
      <g>
        <rect class="cls-3" x="-303.36" y="95.33" width="443.49" height="4"/>
        <rect class="cls-2" x="-303.36" y="99.32" width="443.49" height="10"/>
      </g>
      <g>
        <rect class="cls-3" x="-303.36" y="81.34" width="443.49" height="4"/>
        <rect class="cls-2" x="-303.36" y="85.33" width="443.49" height="10"/>
      </g>
      <g>
        <rect class="cls-3" x="-303.36" y="67.35" width="443.49" height="4"/>
        <rect class="cls-2" x="-303.36" y="71.34" width="443.49" height="10"/>
      </g>
      <g>
        <rect class="cls-3" x="-303.36" y="53.36" width="443.49" height="4"/>
        <rect class="cls-2" x="-303.36" y="57.35" width="443.49" height="10"/>
      </g>
    </g>
    <g>
      <rect class="cls-2" x="-303.36" y="123.31" width="443.49" height="69.95"/>
      <g>
        <rect class="cls-3" x="-303.36" y="179.26" width="443.49" height="4"/>
        <rect class="cls-2" x="-303.36" y="183.25" width="443.49" height="10"/>
      </g>
      <g>
        <rect class="cls-3" x="-303.36" y="165.27" width="443.49" height="4"/>
        <rect class="cls-2" x="-303.36" y="169.26" width="443.49" height="10"/>
      </g>
      <g>
        <rect class="cls-3" x="-303.36" y="151.29" width="443.49" height="4"/>
        <rect class="cls-2" x="-303.36" y="155.27" width="443.49" height="10"/>
      </g>
      <g>
        <rect class="cls-3" x="-303.36" y="137.3" width="443.49" height="4"/>
        <rect class="cls-2" x="-303.36" y="141.29" width="443.49" height="10"/>
      </g>
      <g>
        <rect class="cls-3" x="-303.36" y="123.31" width="443.49" height="4"/>
        <rect class="cls-2" x="-303.36" y="127.3" width="443.49" height="10"/>
      </g>
    </g>
    <g>
      <rect class="cls-2" x="-303.36" y="193.25" width="443.49" height="69.95"/>
      <g>
        <rect class="cls-3" x="-303.36" y="249.21" width="443.49" height="4"/>
        <rect class="cls-2" x="-303.36" y="253.2" width="443.49" height="10"/>
      </g>
      <g>
        <rect class="cls-3" x="-303.36" y="235.22" width="443.49" height="4"/>
        <rect class="cls-2" x="-303.36" y="239.21" width="443.49" height="10"/>
      </g>
      <g>
        <rect class="cls-3" x="-303.36" y="221.23" width="443.49" height="4"/>
        <rect class="cls-2" x="-303.36" y="225.22" width="443.49" height="10"/>
      </g>
      <g>
        <rect class="cls-3" x="-303.36" y="207.24" width="443.49" height="4"/>
        <rect class="cls-2" x="-303.36" y="211.23" width="443.49" height="10"/>
      </g>
      <g>
        <rect class="cls-3" x="-303.36" y="193.25" width="443.49" height="4"/>
        <rect class="cls-2" x="-303.36" y="197.24" width="443.49" height="10"/>
      </g>
    </g>
    <g>
      <rect class="cls-2" x="-303.36" y="263.2" width="443.49" height="69.95"/>
      <g>
        <rect class="cls-3" x="-303.36" y="319.16" width="443.49" height="4"/>
        <rect class="cls-2" x="-303.36" y="323.15" width="443.49" height="10"/>
      </g>
      <g>
        <rect class="cls-3" x="-303.36" y="305.17" width="443.49" height="4"/>
        <rect class="cls-2" x="-303.36" y="309.16" width="443.49" height="10"/>
      </g>
      <g>
        <rect class="cls-3" x="-303.36" y="291.18" width="443.49" height="4"/>
        <rect class="cls-2" x="-303.36" y="295.17" width="443.49" height="10"/>
      </g>
      <g>
        <rect class="cls-3" x="-303.36" y="277.19" width="443.49" height="4"/>
        <rect class="cls-2" x="-303.36" y="281.18" width="443.49" height="10"/>
      </g>
      <g>
        <rect class="cls-3" x="-303.36" y="263.2" width="443.49" height="4"/>
        <rect class="cls-2" x="-303.36" y="267.19" width="443.49" height="10"/>
      </g>
    </g>
    <g>
      <rect class="cls-2" x="-303.36" y="333.15" width="443.49" height="69.95"/>
      <g>
        <rect class="cls-3" x="-303.36" y="389.1" width="443.49" height="4"/>
        <rect class="cls-2" x="-303.36" y="393.09" width="443.49" height="10"/>
      </g>
      <g>
        <rect class="cls-3" x="-303.36" y="375.12" width="443.49" height="4"/>
        <rect class="cls-2" x="-303.36" y="379.1" width="443.49" height="10"/>
      </g>
      <g>
        <rect class="cls-3" x="-303.36" y="361.13" width="443.49" height="4"/>
        <rect class="cls-2" x="-303.36" y="365.12" width="443.49" height="10"/>
      </g>
      <g>
        <rect class="cls-3" x="-303.36" y="347.14" width="443.49" height="4"/>
        <rect class="cls-2" x="-303.36" y="351.13" width="443.49" height="10"/>
      </g>
      <g>
        <rect class="cls-3" x="-303.36" y="333.15" width="443.49" height="4"/>
        <rect class="cls-2" x="-303.36" y="337.14" width="443.49" height="10"/>
      </g>
    </g>
    <g>
      <rect class="cls-2" x="-303.36" y="403.09" width="443.49" height="69.95"/>
      <g>
        <rect class="cls-3" x="-303.36" y="459.05" width="443.49" height="4"/>
        <rect class="cls-2" x="-303.36" y="463.04" width="443.49" height="10"/>
      </g>
      <g>
        <rect class="cls-3" x="-303.36" y="445.06" width="443.49" height="4"/>
        <rect class="cls-2" x="-303.36" y="449.05" width="443.49" height="10"/>
      </g>
      <g>
        <rect class="cls-3" x="-303.36" y="431.07" width="443.49" height="4"/>
        <rect class="cls-2" x="-303.36" y="435.06" width="443.49" height="10"/>
      </g>
      <g>
        <rect class="cls-3" x="-303.36" y="417.08" width="443.49" height="4"/>
        <rect class="cls-2" x="-303.36" y="421.07" width="443.49" height="10"/>
      </g>
      <g>
        <rect class="cls-3" x="-303.36" y="403.09" width="443.49" height="4"/>
        <rect class="cls-2" x="-303.36" y="407.08" width="443.49" height="10"/>
      </g>
    </g>
  </g>
  <path class="cls-1" d="M172.71,420.88c-9.17,0-17.84-4-23.78-10.97-23.44-27.48-57.42-69.48-86.18-113.54C27.46,242.29,9.56,199.66,9.56,169.65,9.56,79.69,82.75,6.5,172.71,6.5s163.15,73.19,163.15,163.15c0,30.01-17.89,72.64-53.19,126.72-28.76,44.07-62.74,86.07-86.18,113.54-5.95,6.97-14.61,10.97-23.78,10.97ZM172.71,10.5C84.95,10.5,13.56,81.9,13.56,169.65c0,68.09,96.79,188.89,138.41,237.67,5.19,6.08,12.74,9.56,20.74,9.56,8,0,15.55-3.49,20.74-9.56,41.62-48.78,138.41-169.58,138.41-237.67,0-87.75-71.39-159.15-159.15-159.15Z"/>
  <path class="cls-1" d="M172.71,181.07l-1.34-1.21c-1.57-1.42-15.31-14.09-15.31-22.81.45-11.41,8.95-16.57,16.65-16.57h0c7.7,0,16.2,5.16,16.65,16.49v.08c0,8.73-13.74,21.4-15.31,22.81l-1.34,1.21ZM172.71,144.48c-6.05,0-12.3,3.91-12.65,12.65,0,5.24,8.18,14.2,12.65,18.51,4.46-4.3,12.61-13.24,12.65-18.55-.36-8.71-6.61-12.61-12.65-12.61Z"/>
  <g>
    <path class="cls-1" d="M198.37,214.23c-1.71,0-2.94-.05-3.38-.08l-1.81-.09-.09-1.81c-.1-1.9-.78-18.69,4.81-24.28,7.61-7.04,16.37-4.89,21.32.05,4.94,4.94,7.08,13.7.1,21.26l-.05.06c-4.29,4.29-15.22,4.89-20.9,4.89ZM197.03,210.22c6.6.12,16.38-.72,19.39-3.68,5.18-5.64,3.73-11.94-.02-15.69-3.75-3.76-10.07-5.21-15.72,0-2.93,2.93-3.77,12.74-3.65,19.36Z"/>
    <path class="cls-1" d="M186.68,416.44l-3.99-.2,10.29-201.89c-4.16.09-7.86-1.21-11.01-3.9-10.69-9.1-11.24-31.1-11.26-32.03l4-.08c0,.21.53,21.14,9.85,29.06,2.87,2.44,6.22,3.35,10.25,2.78l2.4-.34-10.53,206.6Z"/>
  </g>
  <g>
    <path class="cls-1" d="M147.05,214.23c-5.68,0-16.6-.59-20.9-4.89l-.06-.06c-6.98-7.55-4.84-16.32.1-21.26s13.7-7.08,21.26-.1c5.64,5.64,4.96,22.44,4.87,24.33l-.09,1.81-1.81.09c-.44.02-1.67.08-3.38.08ZM129,206.54c3.01,2.96,12.78,3.8,19.39,3.68.12-6.62-.73-16.44-3.71-19.41-5.59-5.16-11.91-3.71-15.66.05-3.75,3.75-5.2,10.05-.02,15.69Z"/>
    <path class="cls-1" d="M158.74,416.44l-10.53-206.6,2.4.34c4.02.57,7.37-.34,10.25-2.78,9.32-7.93,9.85-28.85,9.85-29.06l4,.08c-.02.93-.56,22.93-11.26,32.03-3.15,2.68-6.84,3.99-11.01,3.89l10.29,201.89-3.99.2Z"/>
  </g>
  <path class="cls-1" d="M182.34,507.68c-1.1,0-2-.9-2-2v-.38c0-17.36,6.17-34.23,17.37-47.49l67.1-79.43c.1-.11.39-.46-.04-.88-.42-.42-.77-.13-.88-.04l-46.43,38.87c-1.88,1.58-4.52,1.47-6.26-.27-1.74-1.73-1.87-4.37-.31-6.26l74.68-92.1c.7-.86,1.96-.99,2.81-.29.86.7.99,1.96.29,2.81l-74.69,92.11c-.11.13-.39.47.03.89.42.42.76.13.88.04l46.43-38.87c1.9-1.59,4.54-1.47,6.28.28s1.85,4.39.26,6.28l-67.1,79.43c-10.59,12.54-16.43,28.49-16.43,44.91v.38c0,1.1-.9,2-2,2Z"/>
  <g>
    <path class="cls-1" d="M182.51,541.29c-5.28,0-9.57-4.3-9.57-9.58s4.3-9.57,9.57-9.57,9.57,4.29,9.57,9.57-4.29,9.58-9.57,9.58ZM182.51,526.15c-3.07,0-5.57,2.5-5.57,5.57s2.5,5.58,5.57,5.58,5.57-2.5,5.57-5.58-2.5-5.57-5.57-5.57Z"/>
    <path class="cls-1" d="M190.08,523.62h-15.15c-2.49,0-4.5-2.01-4.5-4.5s2.01-4.5,4.5-4.5h15.15c2.49,0,4.5,2.01,4.5,4.5s-2.01,4.5-4.5,4.5Z"/>
    <path class="cls-1" d="M190.08,514.94h-15.15c-2.49,0-4.5-2.01-4.5-4.5s2.01-4.5,4.5-4.5h15.15c2.49,0,4.5,2.01,4.5,4.5s-2.01,4.5-4.5,4.5Z"/>
  </g>
</svg>