<?xml version="1.0" encoding="UTF-8"?>
<svg id="Layer_1" data-name="Layer 1" xmlns="http://www.w3.org/2000/svg" xmlns:xlink="http://www.w3.org/1999/xlink" viewBox="0 0 388.18 574.29">
  <defs>
    <style>
      .cls-1, .cls-2, .cls-3, .cls-4 {
        stroke-width: 0px;
      }

      .cls-1, .cls-5 {
        fill: url(#New_Pattern);
      }

      .cls-2 {
        fill: #231f20;
      }

      .cls-3 {
        fill: none;
      }

      .cls-6 {
        clip-path: url(#clippath);
      }

      .cls-4 {
        fill: #ffc857;
      }
    </style>
    <pattern id="New_Pattern" data-name="New Pattern" x="0" y="0" width="466.47" height="120" patternTransform="translate(-292.77 -226.71)" patternUnits="userSpaceOnUse" viewBox="0 0 466.47 120">
      <g>
        <rect class="cls-3" width="466.47" height="120"/>
        <g>
          <rect class="cls-4" y="96" width="466.47" height="8"/>
          <rect class="cls-3" y="104" width="466.47" height="16"/>
        </g>
        <g>
          <rect class="cls-4" y="72" width="466.47" height="8"/>
          <rect class="cls-3" y="80" width="466.47" height="16"/>
        </g>
        <g>
          <rect class="cls-4" y="48" width="466.47" height="8"/>
          <rect class="cls-3" y="56" width="466.47" height="16"/>
        </g>
        <g>
          <rect class="cls-4" y="24" width="466.47" height="8"/>
          <rect class="cls-3" y="32" width="466.47" height="16"/>
        </g>
        <g>
          <rect class="cls-4" width="466.47" height="8"/>
          <rect class="cls-3" y="8" width="466.47" height="16"/>
        </g>
      </g>
    </pattern>
    <clipPath id="clippath">
      <path class="cls-1" d="M383.61,169.83c0,68.22-94.67,187.14-138.89,238.97-11.68,13.69-32.84,13.69-44.52,0-44.22-51.83-138.89-170.75-138.89-238.97C61.31,80.83,133.46,8.68,222.46,8.68s161.15,72.15,161.15,161.15"/>
    </clipPath>
  </defs>
  <g>
    <path class="cls-5" d="M383.61,169.83c0,68.22-94.67,187.14-138.89,238.97-11.68,13.69-32.84,13.69-44.52,0-44.22-51.83-138.89-170.75-138.89-238.97C61.31,80.83,133.46,8.68,222.46,8.68s161.15,72.15,161.15,161.15"/>
    <g class="cls-6">
      <g>
        <rect class="cls-1" x="139.87" y="-2.41" width="443.49" height="69.95"/>
        <g>
          <rect class="cls-1" x="139.87" y="53.55" width="443.49" height="4"/>
          <rect class="cls-1" x="139.87" y="57.54" width="443.49" height="10"/>
        </g>
        <g>
          <rect class="cls-1" x="139.87" y="39.56" width="443.49" height="4"/>
          <rect class="cls-1" x="139.87" y="43.55" width="443.49" height="10"/>
        </g>
        <g>
          <rect class="cls-1" x="139.87" y="25.57" width="443.49" height="4"/>
          <rect class="cls-1" x="139.87" y="29.56" width="443.49" height="10"/>
        </g>
        <g>
          <rect class="cls-1" x="139.87" y="11.58" width="443.49" height="4"/>
          <rect class="cls-1" x="139.87" y="15.57" width="443.49" height="10"/>
        </g>
        <g>
          <rect class="cls-1" x="139.87" y="-2.41" width="443.49" height="4"/>
          <rect class="cls-1" x="139.87" y="1.58" width="443.49" height="10"/>
        </g>
      </g>
      <g>
        <rect class="cls-1" x="139.87" y="67.54" width="443.49" height="69.95"/>
        <g>
          <rect class="cls-1" x="139.87" y="123.49" width="443.49" height="4"/>
          <rect class="cls-1" x="139.87" y="127.48" width="443.49" height="10"/>
        </g>
        <g>
          <rect class="cls-1" x="139.87" y="109.51" width="443.49" height="4"/>
          <rect class="cls-1" x="139.87" y="113.49" width="443.49" height="10"/>
        </g>
        <g>
          <rect class="cls-1" x="139.87" y="95.52" width="443.49" height="4"/>
          <rect class="cls-1" x="139.87" y="99.51" width="443.49" height="10"/>
        </g>
        <g>
          <rect class="cls-1" x="139.87" y="81.53" width="443.49" height="4"/>
          <rect class="cls-1" x="139.87" y="85.52" width="443.49" height="10"/>
        </g>
        <g>
          <rect class="cls-1" x="139.87" y="67.54" width="443.49" height="4"/>
          <rect class="cls-1" x="139.87" y="71.53" width="443.49" height="10"/>
        </g>
      </g>
      <g>
        <rect class="cls-1" x="139.87" y="137.48" width="443.49" height="69.95"/>
        <g>
          <rect class="cls-1" x="139.87" y="193.44" width="443.49" height="4"/>
          <rect class="cls-1" x="139.87" y="197.43" width="443.49" height="10"/>
        </g>
        <g>
          <rect class="cls-1" x="139.87" y="179.45" width="443.49" height="4"/>
          <rect class="cls-1" x="139.87" y="183.44" width="443.49" height="10"/>
        </g>
        <g>
          <rect class="cls-1" x="139.87" y="165.46" width="443.49" height="4"/>
          <rect class="cls-1" x="139.87" y="169.45" width="443.49" height="10"/>
        </g>
        <g>
          <rect class="cls-1" x="139.87" y="151.47" width="443.49" height="4"/>
          <rect class="cls-1" x="139.87" y="155.46" width="443.49" height="10"/>
        </g>
        <g>
          <rect class="cls-1" x="139.87" y="137.48" width="443.49" height="4"/>
          <rect class="cls-1" x="139.87" y="141.47" width="443.49" height="10"/>
        </g>
      </g>
      <g>
        <rect class="cls-1" x="139.87" y="207.43" width="443.49" height="69.95"/>
        <g>
          <rect class="cls-1" x="139.87" y="263.39" width="443.49" height="4"/>
          <rect class="cls-1" x="139.87" y="267.38" width="443.49" height="10"/>
        </g>
        <g>
          <rect class="cls-1" x="139.87" y="249.4" width="443.49" height="4"/>
          <rect class="cls-1" x="139.87" y="253.39" width="443.49" height="10"/>
        </g>
        <g>
          <rect class="cls-1" x="139.87" y="235.41" width="443.49" height="4"/>
          <rect class="cls-1" x="139.87" y="239.4" width="443.49" height="10"/>
        </g>
        <g>
          <rect class="cls-1" x="139.87" y="221.42" width="443.49" height="4"/>
          <rect class="cls-1" x="139.87" y="225.41" width="443.49" height="10"/>
        </g>
        <g>
          <rect class="cls-1" x="139.87" y="207.43" width="443.49" height="4"/>
          <rect class="cls-1" x="139.87" y="211.42" width="443.49" height="10"/>
        </g>
      </g>
      <g>
        <rect class="cls-1" x="139.87" y="277.38" width="443.49" height="69.95"/>
        <g>
          <rect class="cls-1" x="139.87" y="333.34" width="443.49" height="4"/>
          <rect class="cls-1" x="139.87" y="337.32" width="443.49" height="10"/>
        </g>
        <g>
          <rect class="cls-1" x="139.87" y="319.35" width="443.49" height="4"/>
          <rect class="cls-1" x="139.87" y="323.34" width="443.49" height="10"/>
        </g>
        <g>
          <rect class="cls-1" x="139.87" y="305.36" width="443.49" height="4"/>
          <rect class="cls-1" x="139.87" y="309.35" width="443.49" height="10"/>
        </g>
        <g>
          <rect class="cls-1" x="139.87" y="291.37" width="443.49" height="4"/>
          <rect class="cls-1" x="139.87" y="295.36" width="443.49" height="10"/>
        </g>
        <g>
          <rect class="cls-1" x="139.87" y="277.38" width="443.49" height="4"/>
          <rect class="cls-1" x="139.87" y="281.37" width="443.49" height="10"/>
        </g>
      </g>
      <g>
        <rect class="cls-1" x="139.87" y="347.32" width="443.49" height="69.95"/>
        <g>
          <rect class="cls-1" x="139.87" y="403.28" width="443.49" height="4"/>
          <rect class="cls-1" x="139.87" y="407.27" width="443.49" height="10"/>
        </g>
        <g>
          <rect class="cls-1" x="139.87" y="389.29" width="443.49" height="4"/>
          <rect class="cls-1" x="139.87" y="393.28" width="443.49" height="10"/>
        </g>
        <g>
          <rect class="cls-1" x="139.87" y="375.3" width="443.49" height="4"/>
          <rect class="cls-1" x="139.87" y="379.29" width="443.49" height="10"/>
        </g>
        <g>
          <rect class="cls-1" x="139.87" y="361.31" width="443.49" height="4"/>
          <rect class="cls-1" x="139.87" y="365.3" width="443.49" height="10"/>
        </g>
        <g>
          <rect class="cls-1" x="139.87" y="347.32" width="443.49" height="4"/>
          <rect class="cls-1" x="139.87" y="351.31" width="443.49" height="10"/>
        </g>
      </g>
      <g>
        <rect class="cls-1" x="139.87" y="417.27" width="443.49" height="69.95"/>
        <g>
          <rect class="cls-1" x="139.87" y="473.23" width="443.49" height="4"/>
          <rect class="cls-1" x="139.87" y="477.22" width="443.49" height="10"/>
        </g>
        <g>
          <rect class="cls-1" x="139.87" y="459.24" width="443.49" height="4"/>
          <rect class="cls-1" x="139.87" y="463.23" width="443.49" height="10"/>
        </g>
        <g>
          <rect class="cls-1" x="139.87" y="445.25" width="443.49" height="4"/>
          <rect class="cls-1" x="139.87" y="449.24" width="443.49" height="10"/>
        </g>
        <g>
          <rect class="cls-1" x="139.87" y="431.26" width="443.49" height="4"/>
          <rect class="cls-1" x="139.87" y="435.25" width="443.49" height="10"/>
        </g>
        <g>
          <rect class="cls-1" x="139.87" y="417.27" width="443.49" height="4"/>
          <rect class="cls-1" x="139.87" y="421.26" width="443.49" height="10"/>
        </g>
      </g>
      <g>
        <rect class="cls-1" x="-303.61" y="-2.41" width="443.49" height="69.95"/>
        <g>
          <rect class="cls-1" x="-303.61" y="53.55" width="443.49" height="4"/>
          <rect class="cls-1" x="-303.61" y="57.54" width="443.49" height="10"/>
        </g>
        <g>
          <rect class="cls-1" x="-303.61" y="39.56" width="443.49" height="4"/>
          <rect class="cls-1" x="-303.61" y="43.55" width="443.49" height="10"/>
        </g>
        <g>
          <rect class="cls-1" x="-303.61" y="25.57" width="443.49" height="4"/>
          <rect class="cls-1" x="-303.61" y="29.56" width="443.49" height="10"/>
        </g>
        <g>
          <rect class="cls-1" x="-303.61" y="11.58" width="443.49" height="4"/>
          <rect class="cls-1" x="-303.61" y="15.57" width="443.49" height="10"/>
        </g>
        <g>
          <rect class="cls-1" x="-303.61" y="-2.41" width="443.49" height="4"/>
          <rect class="cls-1" x="-303.61" y="1.58" width="443.49" height="10"/>
        </g>
      </g>
      <g>
        <rect class="cls-1" x="-303.61" y="67.54" width="443.49" height="69.95"/>
        <g>
          <rect class="cls-1" x="-303.61" y="123.49" width="443.49" height="4"/>
          <rect class="cls-1" x="-303.61" y="127.48" width="443.49" height="10"/>
        </g>
        <g>
          <rect class="cls-1" x="-303.61" y="109.51" width="443.49" height="4"/>
          <rect class="cls-1" x="-303.61" y="113.49" width="443.49" height="10"/>
        </g>
        <g>
          <rect class="cls-1" x="-303.61" y="95.52" width="443.49" height="4"/>
          <rect class="cls-1" x="-303.61" y="99.51" width="443.49" height="10"/>
        </g>
        <g>
          <rect class="cls-1" x="-303.61" y="81.53" width="443.49" height="4"/>
          <rect class="cls-1" x="-303.61" y="85.52" width="443.49" height="10"/>
        </g>
        <g>
          <rect class="cls-1" x="-303.61" y="67.54" width="443.49" height="4"/>
          <rect class="cls-1" x="-303.61" y="71.53" width="443.49" height="10"/>
        </g>
      </g>
      <g>
        <rect class="cls-1" x="-303.61" y="137.48" width="443.49" height="69.95"/>
        <g>
          <rect class="cls-1" x="-303.61" y="193.44" width="443.49" height="4"/>
          <rect class="cls-1" x="-303.61" y="197.43" width="443.49" height="10"/>
        </g>
        <g>
          <rect class="cls-1" x="-303.61" y="179.45" width="443.49" height="4"/>
          <rect class="cls-1" x="-303.61" y="183.44" width="443.49" height="10"/>
        </g>
        <g>
          <rect class="cls-1" x="-303.61" y="165.46" width="443.49" height="4"/>
          <rect class="cls-1" x="-303.61" y="169.45" width="443.49" height="10"/>
        </g>
        <g>
          <rect class="cls-1" x="-303.61" y="151.47" width="443.49" height="4"/>
          <rect class="cls-1" x="-303.61" y="155.46" width="443.49" height="10"/>
        </g>
        <g>
          <rect class="cls-1" x="-303.61" y="137.48" width="443.49" height="4"/>
          <rect class="cls-1" x="-303.61" y="141.47" width="443.49" height="10"/>
        </g>
      </g>
      <g>
        <rect class="cls-1" x="-303.61" y="207.43" width="443.49" height="69.95"/>
        <g>
          <rect class="cls-1" x="-303.61" y="263.39" width="443.49" height="4"/>
          <rect class="cls-1" x="-303.61" y="267.38" width="443.49" height="10"/>
        </g>
        <g>
          <rect class="cls-1" x="-303.61" y="249.4" width="443.49" height="4"/>
          <rect class="cls-1" x="-303.61" y="253.39" width="443.49" height="10"/>
        </g>
        <g>
          <rect class="cls-1" x="-303.61" y="235.41" width="443.49" height="4"/>
          <rect class="cls-1" x="-303.61" y="239.4" width="443.49" height="10"/>
        </g>
        <g>
          <rect class="cls-1" x="-303.61" y="221.42" width="443.49" height="4"/>
          <rect class="cls-1" x="-303.61" y="225.41" width="443.49" height="10"/>
        </g>
        <g>
          <rect class="cls-1" x="-303.61" y="207.43" width="443.49" height="4"/>
          <rect class="cls-1" x="-303.61" y="211.42" width="443.49" height="10"/>
        </g>
      </g>
      <g>
        <rect class="cls-1" x="-303.61" y="277.38" width="443.49" height="69.95"/>
        <g>
          <rect class="cls-1" x="-303.61" y="333.34" width="443.49" height="4"/>
          <rect class="cls-1" x="-303.61" y="337.32" width="443.49" height="10"/>
        </g>
        <g>
          <rect class="cls-1" x="-303.61" y="319.35" width="443.49" height="4"/>
          <rect class="cls-1" x="-303.61" y="323.34" width="443.49" height="10"/>
        </g>
        <g>
          <rect class="cls-1" x="-303.61" y="305.36" width="443.49" height="4"/>
          <rect class="cls-1" x="-303.61" y="309.35" width="443.49" height="10"/>
        </g>
        <g>
          <rect class="cls-1" x="-303.61" y="291.37" width="443.49" height="4"/>
          <rect class="cls-1" x="-303.61" y="295.36" width="443.49" height="10"/>
        </g>
        <g>
          <rect class="cls-1" x="-303.61" y="277.38" width="443.49" height="4"/>
          <rect class="cls-1" x="-303.61" y="281.37" width="443.49" height="10"/>
        </g>
      </g>
      <g>
        <rect class="cls-1" x="-303.61" y="347.32" width="443.49" height="69.95"/>
        <g>
          <rect class="cls-1" x="-303.61" y="403.28" width="443.49" height="4"/>
          <rect class="cls-1" x="-303.61" y="407.27" width="443.49" height="10"/>
        </g>
        <g>
          <rect class="cls-1" x="-303.61" y="389.29" width="443.49" height="4"/>
          <rect class="cls-1" x="-303.61" y="393.28" width="443.49" height="10"/>
        </g>
        <g>
          <rect class="cls-1" x="-303.61" y="375.3" width="443.49" height="4"/>
          <rect class="cls-1" x="-303.61" y="379.29" width="443.49" height="10"/>
        </g>
        <g>
          <rect class="cls-1" x="-303.61" y="361.31" width="443.49" height="4"/>
          <rect class="cls-1" x="-303.61" y="365.3" width="443.49" height="10"/>
        </g>
        <g>
          <rect class="cls-1" x="-303.61" y="347.32" width="443.49" height="4"/>
          <rect class="cls-1" x="-303.61" y="351.31" width="443.49" height="10"/>
        </g>
      </g>
      <g>
        <rect class="cls-1" x="-303.61" y="417.27" width="443.49" height="69.95"/>
        <g>
          <rect class="cls-1" x="-303.61" y="473.23" width="443.49" height="4"/>
          <rect class="cls-1" x="-303.61" y="477.22" width="443.49" height="10"/>
        </g>
        <g>
          <rect class="cls-1" x="-303.61" y="459.24" width="443.49" height="4"/>
          <rect class="cls-1" x="-303.61" y="463.23" width="443.49" height="10"/>
        </g>
        <g>
          <rect class="cls-1" x="-303.61" y="445.25" width="443.49" height="4"/>
          <rect class="cls-1" x="-303.61" y="449.24" width="443.49" height="10"/>
        </g>
        <g>
          <rect class="cls-1" x="-303.61" y="431.26" width="443.49" height="4"/>
          <rect class="cls-1" x="-303.61" y="435.25" width="443.49" height="10"/>
        </g>
        <g>
          <rect class="cls-1" x="-303.61" y="417.27" width="443.49" height="4"/>
          <rect class="cls-1" x="-303.61" y="421.26" width="443.49" height="10"/>
        </g>
      </g>
    </g>
  </g>
  <g>
    <path class="cls-2" d="M172.46,421.06c-9.17,0-17.84-4-23.78-10.97-23.44-27.48-57.42-69.48-86.18-113.54C27.2,242.47,9.31,199.83,9.31,169.83,9.31,79.87,82.5,6.68,172.46,6.68s163.15,73.19,163.15,163.15c0,30.01-17.89,72.64-53.19,126.72-28.76,44.07-62.74,86.07-86.18,113.54-5.95,6.97-14.61,10.97-23.78,10.97ZM172.46,10.68C84.7,10.68,13.31,82.07,13.31,169.83c0,68.09,96.79,188.89,138.41,237.67,5.19,6.08,12.74,9.56,20.74,9.56,8,0,15.55-3.49,20.74-9.56,41.62-48.78,138.41-169.58,138.41-237.67,0-87.75-71.39-159.15-159.15-159.15Z"/>
    <path class="cls-2" d="M172.46,424.06h0c-10.05,0-19.55-4.38-26.07-12.02-23.5-27.54-57.56-69.65-86.41-113.85C24.37,243.61,6.31,200.43,6.31,169.83,6.31,78.21,80.84,3.68,172.46,3.68s166.15,74.53,166.15,166.15c0,30.6-18.06,73.79-53.67,128.36-28.85,44.21-62.91,86.31-86.41,113.85-6.52,7.64-16.02,12.02-26.06,12.02ZM172.46,13.68C86.36,13.68,16.31,83.73,16.31,169.83c0,67.09,96.29,187.2,137.69,235.72,4.61,5.41,11.34,8.51,18.46,8.51,7.12,0,13.84-3.1,18.46-8.51,41.4-48.52,137.69-168.63,137.69-235.72,0-86.1-70.05-156.15-156.15-156.15Z"/>
  </g>
  <g>
    <path class="cls-2" d="M172.46,181.25l-1.34-1.21c-1.57-1.42-15.31-14.09-15.31-22.81.45-11.41,8.95-16.57,16.65-16.57h0c7.7,0,16.2,5.16,16.65,16.49v.08c0,8.73-13.74,21.4-15.31,22.81l-1.34,1.21ZM172.46,144.65c-6.05,0-12.3,3.91-12.65,12.65,0,5.24,8.18,14.2,12.65,18.51,4.46-4.3,12.61-13.24,12.65-18.55-.36-8.71-6.61-12.61-12.65-12.61Z"/>
    <path class="cls-2" d="M172.46,185.3l-3.35-3.03c-2.72-2.46-16.3-15.22-16.3-25.04v-.12c.53-13.37,10.56-19.45,19.65-19.45,9.09,0,19.12,6.06,19.65,19.37v.12c0,9.89-13.57,22.66-16.29,25.11l-3.35,3.03ZM162.81,157.35c.05,2.64,3.99,8.39,9.65,14.23,5.64-5.82,9.57-11.58,9.65-14.28-.34-7.12-5.4-9.65-9.65-9.65h0c-4.26,0-9.33,2.54-9.65,9.7Z"/>
  </g>
  <g>
    <g>
      <path class="cls-2" d="M198.12,214.41c-1.71,0-2.94-.05-3.38-.08l-1.81-.09-.09-1.81c-.1-1.9-.78-18.69,4.81-24.28,7.61-7.04,16.37-4.89,21.32.05,4.94,4.94,7.08,13.7.1,21.26l-.05.06c-4.29,4.29-15.22,4.89-20.9,4.89ZM196.78,210.4c6.6.12,16.38-.72,19.39-3.68,5.18-5.64,3.73-11.94-.02-15.69-3.75-3.76-10.07-5.21-15.72,0-2.93,2.93-3.77,12.74-3.65,19.36Z"/>
      <path class="cls-2" d="M198.12,217.41c-1.76,0-3.06-.06-3.53-.08l-4.52-.23-.23-4.51c-.24-4.66-.53-20.34,5.68-26.55l.09-.08c9.05-8.36,19.55-5.79,25.47.13,6.11,6.11,8.14,16.81.18,25.42l-.1.1c-4.8,4.8-15.19,5.8-23.06,5.8ZM202.51,193.2c-1.28,1.35-2.56,6.93-2.73,14.2,6.7-.16,12.63-1.28,14.23-2.77,4.02-4.43,2.65-8.83,0-11.47-2.65-2.65-7.06-4.02-11.51.04Z"/>
    </g>
    <g>
      <path class="cls-2" d="M186.43,416.61l-3.99-.2,10.29-201.89c-4.16.09-7.86-1.21-11.01-3.9-10.69-9.1-11.24-31.1-11.26-32.03l4-.08c0,.21.53,21.14,9.85,29.06,2.87,2.44,6.22,3.35,10.25,2.78l2.4-.34-10.53,206.6Z"/>
      <path class="cls-2" d="M189.27,419.76l-9.99-.51,10.29-201.92c-3.63-.49-6.92-1.98-9.81-4.43-11.5-9.78-12.26-31.78-12.31-34.25l-.06-3,10-.2.06,3c.12,5.48,1.95,21.01,8.8,26.83,2.21,1.88,4.71,2.54,7.88,2.09l6.01-.86-10.87,213.23Z"/>
    </g>
  </g>
  <g>
    <g>
      <path class="cls-2" d="M146.8,214.41c-5.68,0-16.6-.59-20.9-4.89l-.06-.06c-6.98-7.55-4.84-16.32.1-21.26s13.7-7.08,21.26-.1c5.64,5.64,4.96,22.44,4.87,24.33l-.09,1.81-1.81.09c-.44.02-1.67.08-3.38.08ZM128.75,206.72c3.01,2.96,12.78,3.8,19.39,3.68.12-6.62-.73-16.44-3.71-19.41-5.59-5.16-11.91-3.71-15.66.05-3.75,3.75-5.2,10.05-.02,15.69Z"/>
      <path class="cls-2" d="M146.8,217.41c-7.87,0-18.26-1-23.02-5.76l-.08-.08c-8.01-8.67-5.98-19.36.13-25.47,6.11-6.11,16.8-8.14,25.42-.19l.09.08c6.27,6.27,5.98,21.95,5.74,26.61l-.23,4.51-4.51.23c-.47.02-1.76.08-3.53.08ZM130.9,204.63c1.6,1.49,7.53,2.6,14.23,2.77-.17-7.34-1.46-12.85-2.79-14.25-4.41-4.03-8.92-2.52-11.45.01-2.64,2.64-4.02,7.04,0,11.47Z"/>
    </g>
    <g>
      <path class="cls-2" d="M158.49,416.61l-10.53-206.6,2.4.34c4.02.57,7.37-.34,10.25-2.78,9.32-7.93,9.85-28.85,9.85-29.06l4,.08c-.02.93-.56,22.93-11.26,32.03-3.15,2.68-6.84,3.99-11.01,3.89l10.29,201.89-3.99.2Z"/>
      <path class="cls-2" d="M155.64,419.76l-10.87-213.23,6.01.86c3.17.45,5.67-.21,7.88-2.09,6.85-5.82,8.67-21.35,8.8-26.84l.07-2.99,9.99.19-.06,3c-.05,2.48-.81,24.47-12.31,34.25-2.89,2.46-6.18,3.95-9.81,4.44l10.29,201.91-9.99.51Z"/>
    </g>
  </g>
  <g>
    <path class="cls-2" d="M182.09,551.94c-1.1,0-2-.9-2-2v-44.47c0-17.36,6.17-34.23,17.37-47.49l67.1-79.43c.1-.11.39-.46-.04-.88-.42-.42-.77-.13-.88-.04l-46.43,38.87c-1.88,1.58-4.52,1.47-6.26-.27s-1.87-4.37-.31-6.26l74.68-92.1c.7-.86,1.95-.99,2.81-.29.86.7.99,1.96.29,2.81l-74.69,92.11c-.11.13-.39.47.03.89.42.42.76.13.88.04l46.43-38.87c1.9-1.59,4.54-1.47,6.28.28,1.74,1.75,1.85,4.39.26,6.28l-67.1,79.43c-10.59,12.54-16.43,28.49-16.43,44.91v44.47c0,1.1-.9,2-2,2Z"/>
    <path class="cls-2" d="M182.09,554.94c-2.76,0-5-2.24-5-5v-44.47c0-18.07,6.42-35.62,18.08-49.43l49.56-58.67-25.59,21.42c-3.05,2.55-7.48,2.37-10.3-.44-2.82-2.81-3.04-7.24-.5-10.3l74.66-92.07c1.74-2.14,4.89-2.47,7.03-.74,2.14,1.74,2.47,4.9.74,7.04l-59.38,73.23,27.77-23.25c3.06-2.57,7.51-2.37,10.33.47,2.82,2.84,3.01,7.28.42,10.33l-67.1,79.43c-10.14,12-15.72,27.26-15.72,42.97v44.47c0,2.76-2.24,5-5,5Z"/>
  </g>
  <g>
    <g>
      <path class="cls-2" d="M182.26,569.47c-5.28,0-9.57-4.3-9.57-9.58s4.3-9.57,9.57-9.57,9.57,4.29,9.57,9.57-4.29,9.58-9.57,9.58ZM182.26,554.32c-3.07,0-5.57,2.5-5.57,5.57s2.5,5.58,5.57,5.58,5.57-2.5,5.57-5.58-2.5-5.57-5.57-5.57Z"/>
      <path class="cls-2" d="M182.26,570.47c-5.83,0-10.57-4.74-10.57-10.58s4.74-10.57,10.57-10.57,10.57,4.74,10.57,10.57-4.74,10.58-10.57,10.58ZM182.26,551.32c-4.73,0-8.57,3.85-8.57,8.57s3.85,8.58,8.57,8.58,8.57-3.85,8.57-8.58-3.85-8.57-8.57-8.57ZM182.26,566.47c-3.63,0-6.57-2.95-6.57-6.58s2.95-6.57,6.57-6.57,6.57,2.95,6.57,6.57-2.95,6.58-6.57,6.58ZM182.26,555.32c-2.52,0-4.57,2.05-4.57,4.57s2.05,4.58,4.57,4.58,4.57-2.05,4.57-4.58-2.05-4.57-4.57-4.57Z"/>
    </g>
    <g>
      <path class="cls-2" d="M189.83,551.8h-15.15c-2.49,0-4.5-2.01-4.5-4.5s2.01-4.5,4.5-4.5h15.15c2.49,0,4.5,2.01,4.5,4.5s-2.01,4.5-4.5,4.5Z"/>
      <path class="cls-2" d="M189.83,552.8h-15.15c-3.03,0-5.5-2.47-5.5-5.5s2.47-5.5,5.5-5.5h15.15c3.03,0,5.5,2.47,5.5,5.5s-2.47,5.5-5.5,5.5ZM174.68,543.8c-1.93,0-3.5,1.57-3.5,3.5s1.57,3.5,3.5,3.5h15.15c1.93,0,3.5-1.57,3.5-3.5s-1.57-3.5-3.5-3.5h-15.15Z"/>
    </g>
    <g>
      <path class="cls-2" d="M189.83,543.12h-15.15c-2.49,0-4.5-2.01-4.5-4.5s2.01-4.5,4.5-4.5h15.15c2.49,0,4.5,2.01,4.5,4.5s-2.01,4.5-4.5,4.5Z"/>
      <path class="cls-2" d="M189.83,544.12h-15.15c-3.03,0-5.5-2.47-5.5-5.5s2.47-5.5,5.5-5.5h15.15c3.03,0,5.5,2.47,5.5,5.5s-2.47,5.5-5.5,5.5ZM174.68,535.12c-1.93,0-3.5,1.57-3.5,3.5s1.57,3.5,3.5,3.5h15.15c1.93,0,3.5-1.57,3.5-3.5s-1.57-3.5-3.5-3.5h-15.15Z"/>
    </g>
  </g>
</svg>