<?xml version="1.0" encoding="UTF-8"?>
<svg id="Layer_1" data-name="Layer 1" xmlns="http://www.w3.org/2000/svg" xmlns:xlink="http://www.w3.org/1999/xlink" viewBox="0 0 384.66 584.72">
  <defs>
    <style>
      .cls-1 {
        stroke-width: 10px;
      }

      .cls-1, .cls-2 {
        fill: #231f20;
        stroke: #231f20;
        stroke-miterlimit: 10;
      }

      .cls-2 {
        stroke-width: 5px;
      }

      .cls-3 {
        fill: none;
      }

      .cls-3, .cls-4, .cls-5 {
        stroke-width: 0px;
      }

      .cls-6 {
        clip-path: url(#clippath);
      }

      .cls-4 {
        fill: #a7bdd8;
        opacity: .7;
      }

      .cls-5, .cls-7 {
        fill: url(#New_Pattern_4);
      }
    </style>
    <pattern id="New_Pattern_4" data-name="New Pattern 4" x="0" y="0" width="466.47" height="160" patternTransform="translate(-305.55 -206.14)" patternUnits="userSpaceOnUse" viewBox="0 0 466.47 160">
      <g>
        <rect class="cls-3" width="466.47" height="160"/>
        <g>
          <rect class="cls-4" y="128" width="466.47" height="16"/>
          <rect class="cls-3" y="144" width="466.47" height="16"/>
        </g>
        <g>
          <rect class="cls-4" y="96" width="466.47" height="16"/>
          <rect class="cls-3" y="112" width="466.47" height="16"/>
        </g>
        <g>
          <rect class="cls-4" y="64" width="466.47" height="16"/>
          <rect class="cls-3" y="80" width="466.47" height="16"/>
        </g>
        <g>
          <rect class="cls-4" y="32" width="466.47" height="16"/>
          <rect class="cls-3" y="48" width="466.47" height="16"/>
        </g>
        <g>
          <rect class="cls-4" width="466.47" height="16"/>
          <rect class="cls-3" y="16" width="466.47" height="16"/>
        </g>
      </g>
    </pattern>
    <clipPath id="clippath">
      <path class="cls-5" d="M381.59,170.19c0,68.22-94.67,187.14-138.89,238.97-11.68,13.69-32.84,13.69-44.52,0-44.22-51.83-138.89-170.75-138.89-238.97C59.3,81.19,131.45,9.04,220.45,9.04s161.15,72.15,161.15,161.15"/>
    </clipPath>
  </defs>
  <g>
    <path class="cls-7" d="M381.59,170.19c0,68.22-94.67,187.14-138.89,238.97-11.68,13.69-32.84,13.69-44.52,0-44.22-51.83-138.89-170.75-138.89-238.97C59.3,81.19,131.45,9.04,220.45,9.04s161.15,72.15,161.15,161.15"/>
    <g class="cls-6">
      <g>
        <rect class="cls-5" x="137.86" y="-2.05" width="443.49" height="69.95"/>
        <g>
          <rect class="cls-5" x="137.86" y="53.91" width="443.49" height="4"/>
          <rect class="cls-5" x="137.86" y="57.9" width="443.49" height="10"/>
        </g>
        <g>
          <rect class="cls-5" x="137.86" y="39.92" width="443.49" height="4"/>
          <rect class="cls-5" x="137.86" y="43.91" width="443.49" height="10"/>
        </g>
        <g>
          <rect class="cls-5" x="137.86" y="25.93" width="443.49" height="4"/>
          <rect class="cls-5" x="137.86" y="29.92" width="443.49" height="10"/>
        </g>
        <g>
          <rect class="cls-5" x="137.86" y="11.94" width="443.49" height="4"/>
          <rect class="cls-5" x="137.86" y="15.93" width="443.49" height="10"/>
        </g>
        <g>
          <rect class="cls-5" x="137.86" y="-2.05" width="443.49" height="4"/>
          <rect class="cls-5" x="137.86" y="1.94" width="443.49" height="10"/>
        </g>
      </g>
      <g>
        <rect class="cls-5" x="137.86" y="67.9" width="443.49" height="69.95"/>
        <g>
          <rect class="cls-5" x="137.86" y="123.86" width="443.49" height="4"/>
          <rect class="cls-5" x="137.86" y="127.85" width="443.49" height="10"/>
        </g>
        <g>
          <rect class="cls-5" x="137.86" y="109.87" width="443.49" height="4"/>
          <rect class="cls-5" x="137.86" y="113.86" width="443.49" height="10"/>
        </g>
        <g>
          <rect class="cls-5" x="137.86" y="95.88" width="443.49" height="4"/>
          <rect class="cls-5" x="137.86" y="99.87" width="443.49" height="10"/>
        </g>
        <g>
          <rect class="cls-5" x="137.86" y="81.89" width="443.49" height="4"/>
          <rect class="cls-5" x="137.86" y="85.88" width="443.49" height="10"/>
        </g>
        <g>
          <rect class="cls-5" x="137.86" y="67.9" width="443.49" height="4"/>
          <rect class="cls-5" x="137.86" y="71.89" width="443.49" height="10"/>
        </g>
      </g>
      <g>
        <rect class="cls-5" x="137.86" y="137.85" width="443.49" height="69.95"/>
        <g>
          <rect class="cls-5" x="137.86" y="193.8" width="443.49" height="4"/>
          <rect class="cls-5" x="137.86" y="197.79" width="443.49" height="10"/>
        </g>
        <g>
          <rect class="cls-5" x="137.86" y="179.82" width="443.49" height="4"/>
          <rect class="cls-5" x="137.86" y="183.8" width="443.49" height="10"/>
        </g>
        <g>
          <rect class="cls-5" x="137.86" y="165.83" width="443.49" height="4"/>
          <rect class="cls-5" x="137.86" y="169.82" width="443.49" height="10"/>
        </g>
        <g>
          <rect class="cls-5" x="137.86" y="151.84" width="443.49" height="4"/>
          <rect class="cls-5" x="137.86" y="155.83" width="443.49" height="10"/>
        </g>
        <g>
          <rect class="cls-5" x="137.86" y="137.85" width="443.49" height="4"/>
          <rect class="cls-5" x="137.86" y="141.84" width="443.49" height="10"/>
        </g>
      </g>
      <g>
        <rect class="cls-5" x="137.86" y="207.79" width="443.49" height="69.95"/>
        <g>
          <rect class="cls-5" x="137.86" y="263.75" width="443.49" height="4"/>
          <rect class="cls-5" x="137.86" y="267.74" width="443.49" height="10"/>
        </g>
        <g>
          <rect class="cls-5" x="137.86" y="249.76" width="443.49" height="4"/>
          <rect class="cls-5" x="137.86" y="253.75" width="443.49" height="10"/>
        </g>
        <g>
          <rect class="cls-5" x="137.86" y="235.77" width="443.49" height="4"/>
          <rect class="cls-5" x="137.86" y="239.76" width="443.49" height="10"/>
        </g>
        <g>
          <rect class="cls-5" x="137.86" y="221.78" width="443.49" height="4"/>
          <rect class="cls-5" x="137.86" y="225.77" width="443.49" height="10"/>
        </g>
        <g>
          <rect class="cls-5" x="137.86" y="207.79" width="443.49" height="4"/>
          <rect class="cls-5" x="137.86" y="211.78" width="443.49" height="10"/>
        </g>
      </g>
      <g>
        <rect class="cls-5" x="137.86" y="277.74" width="443.49" height="69.95"/>
        <g>
          <rect class="cls-5" x="137.86" y="333.7" width="443.49" height="4"/>
          <rect class="cls-5" x="137.86" y="337.69" width="443.49" height="10"/>
        </g>
        <g>
          <rect class="cls-5" x="137.86" y="319.71" width="443.49" height="4"/>
          <rect class="cls-5" x="137.86" y="323.7" width="443.49" height="10"/>
        </g>
        <g>
          <rect class="cls-5" x="137.86" y="305.72" width="443.49" height="4"/>
          <rect class="cls-5" x="137.86" y="309.71" width="443.49" height="10"/>
        </g>
        <g>
          <rect class="cls-5" x="137.86" y="291.73" width="443.49" height="4"/>
          <rect class="cls-5" x="137.86" y="295.72" width="443.49" height="10"/>
        </g>
        <g>
          <rect class="cls-5" x="137.86" y="277.74" width="443.49" height="4"/>
          <rect class="cls-5" x="137.86" y="281.73" width="443.49" height="10"/>
        </g>
      </g>
      <g>
        <rect class="cls-5" x="137.86" y="347.69" width="443.49" height="69.95"/>
        <g>
          <rect class="cls-5" x="137.86" y="403.65" width="443.49" height="4"/>
          <rect class="cls-5" x="137.86" y="407.63" width="443.49" height="10"/>
        </g>
        <g>
          <rect class="cls-5" x="137.86" y="389.66" width="443.49" height="4"/>
          <rect class="cls-5" x="137.86" y="393.65" width="443.49" height="10"/>
        </g>
        <g>
          <rect class="cls-5" x="137.86" y="375.67" width="443.49" height="4"/>
          <rect class="cls-5" x="137.86" y="379.66" width="443.49" height="10"/>
        </g>
        <g>
          <rect class="cls-5" x="137.86" y="361.68" width="443.49" height="4"/>
          <rect class="cls-5" x="137.86" y="365.67" width="443.49" height="10"/>
        </g>
        <g>
          <rect class="cls-5" x="137.86" y="347.69" width="443.49" height="4"/>
          <rect class="cls-5" x="137.86" y="351.68" width="443.49" height="10"/>
        </g>
      </g>
      <g>
        <rect class="cls-5" x="137.86" y="417.63" width="443.49" height="69.95"/>
        <g>
          <rect class="cls-5" x="137.86" y="473.59" width="443.49" height="4"/>
          <rect class="cls-5" x="137.86" y="477.58" width="443.49" height="10"/>
        </g>
        <g>
          <rect class="cls-5" x="137.86" y="459.6" width="443.49" height="4"/>
          <rect class="cls-5" x="137.86" y="463.59" width="443.49" height="10"/>
        </g>
        <g>
          <rect class="cls-5" x="137.86" y="445.61" width="443.49" height="4"/>
          <rect class="cls-5" x="137.86" y="449.6" width="443.49" height="10"/>
        </g>
        <g>
          <rect class="cls-5" x="137.86" y="431.62" width="443.49" height="4"/>
          <rect class="cls-5" x="137.86" y="435.61" width="443.49" height="10"/>
        </g>
        <g>
          <rect class="cls-5" x="137.86" y="417.63" width="443.49" height="4"/>
          <rect class="cls-5" x="137.86" y="421.62" width="443.49" height="10"/>
        </g>
      </g>
      <g>
        <rect class="cls-5" x="-305.63" y="-2.05" width="443.49" height="69.95"/>
        <g>
          <rect class="cls-5" x="-305.63" y="53.91" width="443.49" height="4"/>
          <rect class="cls-5" x="-305.63" y="57.9" width="443.49" height="10"/>
        </g>
        <g>
          <rect class="cls-5" x="-305.63" y="39.92" width="443.49" height="4"/>
          <rect class="cls-5" x="-305.63" y="43.91" width="443.49" height="10"/>
        </g>
        <g>
          <rect class="cls-5" x="-305.63" y="25.93" width="443.49" height="4"/>
          <rect class="cls-5" x="-305.63" y="29.92" width="443.49" height="10"/>
        </g>
        <g>
          <rect class="cls-5" x="-305.63" y="11.94" width="443.49" height="4"/>
          <rect class="cls-5" x="-305.63" y="15.93" width="443.49" height="10"/>
        </g>
        <g>
          <rect class="cls-5" x="-305.63" y="-2.05" width="443.49" height="4"/>
          <rect class="cls-5" x="-305.63" y="1.94" width="443.49" height="10"/>
        </g>
      </g>
      <g>
        <rect class="cls-5" x="-305.63" y="67.9" width="443.49" height="69.95"/>
        <g>
          <rect class="cls-5" x="-305.63" y="123.86" width="443.49" height="4"/>
          <rect class="cls-5" x="-305.63" y="127.85" width="443.49" height="10"/>
        </g>
        <g>
          <rect class="cls-5" x="-305.63" y="109.87" width="443.49" height="4"/>
          <rect class="cls-5" x="-305.63" y="113.86" width="443.49" height="10"/>
        </g>
        <g>
          <rect class="cls-5" x="-305.63" y="95.88" width="443.49" height="4"/>
          <rect class="cls-5" x="-305.63" y="99.87" width="443.49" height="10"/>
        </g>
        <g>
          <rect class="cls-5" x="-305.63" y="81.89" width="443.49" height="4"/>
          <rect class="cls-5" x="-305.63" y="85.88" width="443.49" height="10"/>
        </g>
        <g>
          <rect class="cls-5" x="-305.63" y="67.9" width="443.49" height="4"/>
          <rect class="cls-5" x="-305.63" y="71.89" width="443.49" height="10"/>
        </g>
      </g>
      <g>
        <rect class="cls-5" x="-305.63" y="137.85" width="443.49" height="69.95"/>
        <g>
          <rect class="cls-5" x="-305.63" y="193.8" width="443.49" height="4"/>
          <rect class="cls-5" x="-305.63" y="197.79" width="443.49" height="10"/>
        </g>
        <g>
          <rect class="cls-5" x="-305.63" y="179.82" width="443.49" height="4"/>
          <rect class="cls-5" x="-305.63" y="183.8" width="443.49" height="10"/>
        </g>
        <g>
          <rect class="cls-5" x="-305.63" y="165.83" width="443.49" height="4"/>
          <rect class="cls-5" x="-305.63" y="169.82" width="443.49" height="10"/>
        </g>
        <g>
          <rect class="cls-5" x="-305.63" y="151.84" width="443.49" height="4"/>
          <rect class="cls-5" x="-305.63" y="155.83" width="443.49" height="10"/>
        </g>
        <g>
          <rect class="cls-5" x="-305.63" y="137.85" width="443.49" height="4"/>
          <rect class="cls-5" x="-305.63" y="141.84" width="443.49" height="10"/>
        </g>
      </g>
      <g>
        <rect class="cls-5" x="-305.63" y="207.79" width="443.49" height="69.95"/>
        <g>
          <rect class="cls-5" x="-305.63" y="263.75" width="443.49" height="4"/>
          <rect class="cls-5" x="-305.63" y="267.74" width="443.49" height="10"/>
        </g>
        <g>
          <rect class="cls-5" x="-305.63" y="249.76" width="443.49" height="4"/>
          <rect class="cls-5" x="-305.63" y="253.75" width="443.49" height="10"/>
        </g>
        <g>
          <rect class="cls-5" x="-305.63" y="235.77" width="443.49" height="4"/>
          <rect class="cls-5" x="-305.63" y="239.76" width="443.49" height="10"/>
        </g>
        <g>
          <rect class="cls-5" x="-305.63" y="221.78" width="443.49" height="4"/>
          <rect class="cls-5" x="-305.63" y="225.77" width="443.49" height="10"/>
        </g>
        <g>
          <rect class="cls-5" x="-305.63" y="207.79" width="443.49" height="4"/>
          <rect class="cls-5" x="-305.63" y="211.78" width="443.49" height="10"/>
        </g>
      </g>
      <g>
        <rect class="cls-5" x="-305.63" y="277.74" width="443.49" height="69.95"/>
        <g>
          <rect class="cls-5" x="-305.63" y="333.7" width="443.49" height="4"/>
          <rect class="cls-5" x="-305.63" y="337.69" width="443.49" height="10"/>
        </g>
        <g>
          <rect class="cls-5" x="-305.63" y="319.71" width="443.49" height="4"/>
          <rect class="cls-5" x="-305.63" y="323.7" width="443.49" height="10"/>
        </g>
        <g>
          <rect class="cls-5" x="-305.63" y="305.72" width="443.49" height="4"/>
          <rect class="cls-5" x="-305.63" y="309.71" width="443.49" height="10"/>
        </g>
        <g>
          <rect class="cls-5" x="-305.63" y="291.73" width="443.49" height="4"/>
          <rect class="cls-5" x="-305.63" y="295.72" width="443.49" height="10"/>
        </g>
        <g>
          <rect class="cls-5" x="-305.63" y="277.74" width="443.49" height="4"/>
          <rect class="cls-5" x="-305.63" y="281.73" width="443.49" height="10"/>
        </g>
      </g>
      <g>
        <rect class="cls-5" x="-305.63" y="347.69" width="443.49" height="69.95"/>
        <g>
          <rect class="cls-5" x="-305.63" y="403.65" width="443.49" height="4"/>
          <rect class="cls-5" x="-305.63" y="407.63" width="443.49" height="10"/>
        </g>
        <g>
          <rect class="cls-5" x="-305.63" y="389.66" width="443.49" height="4"/>
          <rect class="cls-5" x="-305.63" y="393.65" width="443.49" height="10"/>
        </g>
        <g>
          <rect class="cls-5" x="-305.63" y="375.67" width="443.49" height="4"/>
          <rect class="cls-5" x="-305.63" y="379.66" width="443.49" height="10"/>
        </g>
        <g>
          <rect class="cls-5" x="-305.63" y="361.68" width="443.49" height="4"/>
          <rect class="cls-5" x="-305.63" y="365.67" width="443.49" height="10"/>
        </g>
        <g>
          <rect class="cls-5" x="-305.63" y="347.69" width="443.49" height="4"/>
          <rect class="cls-5" x="-305.63" y="351.68" width="443.49" height="10"/>
        </g>
      </g>
      <g>
        <rect class="cls-5" x="-305.63" y="417.63" width="443.49" height="69.95"/>
        <g>
          <rect class="cls-5" x="-305.63" y="473.59" width="443.49" height="4"/>
          <rect class="cls-5" x="-305.63" y="477.58" width="443.49" height="10"/>
        </g>
        <g>
          <rect class="cls-5" x="-305.63" y="459.6" width="443.49" height="4"/>
          <rect class="cls-5" x="-305.63" y="463.59" width="443.49" height="10"/>
        </g>
        <g>
          <rect class="cls-5" x="-305.63" y="445.61" width="443.49" height="4"/>
          <rect class="cls-5" x="-305.63" y="449.6" width="443.49" height="10"/>
        </g>
        <g>
          <rect class="cls-5" x="-305.63" y="431.62" width="443.49" height="4"/>
          <rect class="cls-5" x="-305.63" y="435.61" width="443.49" height="10"/>
        </g>
        <g>
          <rect class="cls-5" x="-305.63" y="417.63" width="443.49" height="4"/>
          <rect class="cls-5" x="-305.63" y="421.62" width="443.49" height="10"/>
        </g>
      </g>
    </g>
  </g>
  <path class="cls-1" d="M170.45,421.42c-9.17,0-17.84-4-23.78-10.97-23.44-27.48-57.42-69.48-86.18-113.54C25.19,242.83,7.3,200.2,7.3,170.19,7.3,80.23,80.49,7.04,170.45,7.04s163.15,73.19,163.15,163.15c0,30.01-17.89,72.64-53.19,126.72-28.76,44.07-62.74,86.07-86.18,113.54-5.95,6.97-14.61,10.97-23.78,10.97ZM170.45,11.04C82.69,11.04,11.3,82.44,11.3,170.19c0,68.09,96.79,188.89,138.41,237.67,5.19,6.08,12.74,9.56,20.74,9.56,8,0,15.55-3.49,20.74-9.56,41.62-48.78,138.41-169.58,138.41-237.67,0-87.75-71.39-159.15-159.15-159.15Z"/>
  <path class="cls-1" d="M170.45,181.62l-1.34-1.21c-1.57-1.42-15.31-14.09-15.31-22.81.45-11.41,8.95-16.57,16.65-16.57h0c7.7,0,16.2,5.16,16.65,16.49v.08c0,8.73-13.74,21.4-15.31,22.81l-1.34,1.21ZM170.45,145.02c-6.05,0-12.3,3.91-12.65,12.65,0,5.24,8.18,14.2,12.65,18.51,4.46-4.3,12.61-13.24,12.65-18.55-.36-8.71-6.61-12.61-12.65-12.61Z"/>
  <g>
    <path class="cls-1" d="M196.11,214.77c-1.71,0-2.94-.05-3.38-.08l-1.81-.09-.09-1.81c-.1-1.9-.78-18.69,4.81-24.28,7.61-7.04,16.37-4.89,21.32.05,4.94,4.94,7.08,13.7.1,21.26l-.05.06c-4.29,4.29-15.22,4.89-20.9,4.89ZM194.76,210.76c6.6.12,16.38-.72,19.39-3.68,5.18-5.64,3.73-11.94-.02-15.69-3.75-3.76-10.07-5.21-15.72,0-2.93,2.93-3.77,12.74-3.65,19.36Z"/>
    <path class="cls-1" d="M180.42,416.77h0s10.29-201.89,10.29-201.89c-4.16.09-7.86-1.21-11.01-3.9-10.69-9.1-11.24-31.1-11.26-32.03l4-.08c0,.21.53,21.14,9.85,29.06,2.87,2.44,6.22,3.35,10.25,2.78l2.4-.34-10.33,202.61c-.11,2.21-1.99,3.9-4.2,3.79Z"/>
  </g>
  <g>
    <path class="cls-1" d="M144.79,214.77c-5.68,0-16.6-.59-20.9-4.89l-.06-.06c-6.98-7.55-4.84-16.32.1-21.26s13.7-7.08,21.26-.1c5.64,5.64,4.96,22.44,4.87,24.33l-.09,1.81-1.81.09c-.44.02-1.67.08-3.38.08ZM126.74,207.09c3.01,2.96,12.78,3.8,19.39,3.68.12-6.62-.73-16.44-3.71-19.41-5.59-5.16-11.91-3.71-15.66.05-3.75,3.75-5.2,10.05-.02,15.69Z"/>
    <path class="cls-1" d="M156.27,412.98l-10.33-202.61,2.4.34c4.02.57,7.37-.34,10.25-2.78,9.32-7.93,9.85-28.85,9.85-29.06l4,.08c-.02.93-.56,22.93-11.26,32.03-3.15,2.68-6.84,3.99-11.01,3.89l10.29,201.89h0c-2.21.11-4.09-1.59-4.2-3.79Z"/>
  </g>
  <path class="cls-1" d="M180.08,507.5c-1.1,0-2-.49-2-1.6v-.07c0-17.36,6.17-34.23,17.37-47.49l67.1-79.43c.1-.11,4.65.69,3.06,2.58l-67.1,79.43c-10.59,12.54-16.43,28.49-16.43,44.91v.07c0,1.1-.9,1.6-2,1.6Z"/>
  <path class="cls-2" d="M180.67,536.69c-8.27,0-15-6.73-15-15s6.73-15,15-15,15,6.73,15,15-6.73,15-15,15ZM180.67,512.95c-4.82,0-8.73,3.92-8.73,8.73s3.92,8.73,8.73,8.73,8.73-3.92,8.73-8.73-3.92-8.73-8.73-8.73Z"/>
</svg>